Language: English
Genre:Crime | Drama | Thriller
IMDB:http://www.imdb.com/title/tt0840361/
Source:Imagine-thanks


General
Complete name :The Town Cam XviD Feel-Free
Format : AVI
Format/Info : Audio Video Interleave
File size : 1.28 GiB
Duration : 1h 46mn
Overall bit rate : 1 719 Kbps
Video #0
Muxing mode : Packed bitstream
Codec ID : XVID
Codec ID/Hint : XviD
Duration : 1h 46mn
Bit rate : 1 518 Kbps
Width : 720 pixels
Height : 304 pixels
Display aspect ratio : 2.35:1
Frame rate : 23.976 fps
Resolution : 24 bits
Colorimetry : 4:2:0
Scan type : Progressive
Bits/(Pixel*Frame) : 0.289
Stream size : 1.13 GiB (88%)
Writing library : XviD 1.2.1 (UTC 2008-12-04)
Audio #1
ID : 1
Format : AC-3
Format/Info : Audio Coding 3
Codec ID : 2000
Duration : 1h 46mn
Bit rate mode : Constant
Bit rate : 192 Kbps
Channel(s) : 2 channels
Channel positions : L R
Sampling rate : 48.0 KHz
Stream size : 146 MiB (11%)
Alignment : Aligned on interleaves
Interleave, duration : 42 ms (1.00 video frame)
Interleave, preload duration : 512 ms

Plot:
As he plans his next job, a longtime thief tries to balance his feelings for a bank manager connected to one of his earlier heists, as well as the FBI agent looking to bring him and his crew down